<?xml version="1.0" ?><svg enable-background="new 0 0 515.91 728.5" height="512" id="Layer_1" version="1.1" viewBox="0 0 512.00003 512" width="512" xml:space="preserve" xmlns="http://www.w3.org/2000/svg" xmlns:cc="http://creativecommons.org/ns#" xmlns:dc="http://purl.org/dc/elements/1.1/" xmlns:inkscape="http://www.inkscape.org/namespaces/inkscape" xmlns:rdf="http://www.w3.org/1999/02/22-rdf-syntax-ns#" xmlns:sodipodi="http://sodipodi.sourceforge.net/DTD/sodipodi-0.dtd" xmlns:svg="http://www.w3.org/2000/svg"><defs id="defs7"/><path d="m 1e-6,-1.5e-5 0,512.000025 512.000029,0 0,-512.000025 -512.000029,0 z" id="path5060" style="fill:#97da54;fill-opacity:1;fill-rule:nonzero;stroke:none"/><path d="m 56.000001,80.509795 0,71.392645 30.46757,0 c 21.275499,0 25.037719,14.71446 25.037719,35.04274 l 0.15083,126.19408 c 0,65.37036 57.35011,118.35094 128.00402,118.35094 l 174.40926,0 c 22.36391,0 41.93063,-14.13132 41.93063,-35.89743 l 0,-195.67623 c 0,-65.37033 -57.32145,-118.350935 -128.05431,-118.350935 l -73.40373,0 0,-0.20111 -198.541989,-0.8547 z m 95.374569,43.690295 35.04274,0 0,179.83912 c 0,24.05431 16.41575,42.73505 35.64605,42.73505 l 119.5073,0.50277 c 24.91942,0 44.34389,-17.18844 44.34389,-37.55657 l -0.20111,-95.47511 c 0,-6.19632 -2.01123,-11.01607 -6.43539,-15.48516 -4.43869,-4.48341 -9.1809,-6.53595 -15.28406,-6.53595 -6.23114,0 -10.83568,2.04234 -15.28407,6.53595 -4.4242,4.46909 -6.43539,9.28884 -6.43539,15.48516 l 0,81.69935 -37.0538,0 0,-81.69935 c 0,-6.19632 -2.06146,-11.01607 -6.48567,-15.48516 -4.44838,-4.49361 -9.053,-6.53595 -15.28406,-6.53595 -6.10313,0 -10.7951,2.05254 -15.23379,6.53595 -4.42415,4.46909 -6.48567,9.28884 -6.48567,15.48516 l 0,81.69935 -37.0538,0 0,-81.69935 c -5e-5,-16.16629 5.98606,-30.50639 17.3454,-41.9809 11.36502,-11.48064 25.50861,-17.39568 41.42786,-17.39568 15.61956,0 29.1976,5.86818 40.22122,16.49069 11.05594,-10.64005 24.69574,-16.49069 40.32177,-16.49069 15.9192,0 30.06296,5.91506 41.42785,17.39568 11.35953,11.47451 17.3454,25.81461 17.3454,41.9809 l 0.15083,102.01107 c -1.75138,17.07915 -8.98991,32.23173 -21.31725,44.89694 l -0.0503,0 c -14.4943,14.75615 -32.4407,22.37305 -52.8909,22.37305 l -133.08196,0 0,-0.65359 c -16.2881,-1.74193 -30.78137,-8.81571 -42.83557,-20.71393 -14.10304,-14.04842 -21.36752,-31.4206 -21.36752,-51.2318 l 0,-186.72699 z" id="path2576" style="fill:#ffffff;fill-opacity:1;fill-rule:evenodd;display:inline"/></svg>